<svg width="48" height="48" viewBox="0 0 48 48" fill="none" xmlns="http://www.w3.org/2000/svg">
<path d="M29.4 12.6004C29.0335 12.9743 28.8282 13.4769 28.8282 14.0004C28.8282 14.524 29.0335 15.0266 29.4 15.4004L32.6 18.6004C32.9738 18.9669 33.4764 19.1722 34 19.1722C34.5235 19.1722 35.0261 18.9669 35.4 18.6004L42.94 11.0604C43.9456 13.2828 44.2501 15.7589 43.8129 18.1587C43.3756 20.5586 42.2174 22.7681 40.4925 24.493C38.7676 26.2179 36.5581 27.3761 34.1582 27.8134C31.7584 28.2506 29.2823 27.9461 27.06 26.9404L13.24 40.7604C12.4443 41.5561 11.3652 42.0031 10.24 42.0031C9.11474 42.0031 8.0356 41.5561 7.23995 40.7604C6.44431 39.9648 5.99731 38.8857 5.99731 37.7604C5.99731 36.6352 6.44431 35.5561 7.23995 34.7604L21.06 20.9404C20.0543 18.7181 19.7498 16.242 20.187 13.8422C20.6243 11.4423 21.7825 9.23276 23.5074 7.50789C25.2323 5.78302 27.4418 4.62479 29.8417 4.18753C32.2415 3.75028 34.7176 4.05478 36.94 5.06045L29.4 12.6004Z" stroke="#65A0FD" stroke-width="4" stroke-linecap="round" stroke-linejoin="round"/>
</svg>
